<svg width="18" height="12" version="1.1" xmlns="http://www.w3.org/2000/svg" desc="Created with imagetracer.js version 1.2.6" ><path fill="rgb(54,65,125)" stroke="rgb(54,65,125)" stroke-width="1" opacity="1" d="M 8.5 1 L 11 2.5 L 9.5 2 L 7.5 3 L 8.5 1 Z " /><path fill="rgb(54,65,125)" stroke="rgb(54,65,125)" stroke-width="1" opacity="1" d="M 13.5 5 L 17.5 10 L 13.5 5 Z " /><path fill="rgb(54,65,125)" stroke="rgb(54,65,125)" stroke-width="1" opacity="1" d="M 3.5 6 L 0.5 10 L 3.5 6 Z " /><path fill="rgb(54,65,125)" stroke="rgb(54,65,125)" stroke-width="1" opacity="1" d="M 7.5 6 L 6.5 8 L 7.5 6 Z " /><path fill="rgb(54,65,125)" stroke="rgb(54,65,125)" stroke-width="1" opacity="1" d="M 10.5 6 L 11.5 8 L 10.5 6 Z " /><path fill="rgb(54,65,125)" stroke="rgb(54,65,125)" stroke-width="1" opacity="1" d="M 14.5 10 L 15.5 12 L 14.5 10 Z " /><path fill="rgb(4,1,5)" stroke="rgb(4,1,5)" stroke-width="1" opacity="1" d="M 3.5 0 L 1.5 3 L 0 2.5 L 3.5 0 Z " /><path fill="rgb(4,1,5)" stroke="rgb(4,1,5)" stroke-width="1" opacity="1" d="M 12.5 0 Q 15.8 -1.1 15 1.5 L 15.5 3 L 12.5 1 L 12.5 0 Z " /><path fill="rgb(4,1,5)" stroke="rgb(4,1,5)" stroke-width="1" opacity="1" d="M 9.5 8 L 12 11.5 L 9.5 12 L 8 10.5 L 9.5 8 Z " /><path fill="rgb(0,0,0)" stroke="rgb(0,0,0)" stroke-width="1" opacity="1" d="M 11.5 0 L 13.5 3 L 11.5 0 Z " /><path fill="rgb(0,0,0)" stroke="rgb(0,0,0)" stroke-width="1" opacity="1" d="M 17.5 1 L 18 3.5 L 15.5 5 L 16 3.5 L 17.5 1 Z " /><path fill="rgb(0,0,0)" stroke="rgb(0,0,0)" stroke-width="1" opacity="1" d="M 0.5 3 Q 3.1 2.2 2 5.5 L 0 6.5 L 1 4.5 L 0.5 3 Z " /><path fill="rgb(0,0,0)" stroke="rgb(0,0,0)" stroke-width="1" opacity="1" d="M 6.5 10 L 7 12 L 5 11.5 L 6.5 10 Z " /><path fill="rgb(6,1,1)" stroke="rgb(6,1,1)" stroke-width="1" opacity="1" d="M 5.5 0 L 5 1.5 L 2.5 5 L 3 3.5 L 5.5 0 Z " /><path fill="rgb(0,0,7)" stroke="rgb(0,0,7)" stroke-width="1" opacity="1" d="M 0 0 L 3 0.5 L 0 2 L 0 0 Z " /><path fill="rgb(0,0,7)" stroke="rgb(0,0,7)" stroke-width="1" opacity="1" d="M 7.5 0 L 4.5 4 L 7.5 0 Z " /><path fill="rgb(0,0,7)" stroke="rgb(0,0,7)" stroke-width="1" opacity="1" d="M 10.5 0 L 15 3 Q 13.9 5.7 16.5 5 L 18 4.5 L 17.5 7 L 10.5 0 Z " /><path fill="rgb(0,0,7)" stroke="rgb(0,0,7)" stroke-width="1" opacity="1" d="M 15 0 L 18 0.5 L 15 2 L 15 0 Z " /><path fill="rgb(0,0,7)" stroke="rgb(0,0,7)" stroke-width="1" opacity="1" d="M 6.5 9 L 4.5 12 L 6.5 9 Z " /><path fill="rgb(0,0,7)" stroke="rgb(0,0,7)" stroke-width="1" opacity="1" d="M 10.5 9 L 12.5 12 L 8 11.5 L 10.5 9 Z " /><path fill="rgb(0,0,32)" stroke="rgb(0,0,32)" stroke-width="1" opacity="1" d="M 6.5 2 L 3.5 6 L 6.5 2 Z " /><path fill="rgb(0,0,32)" stroke="rgb(0,0,32)" stroke-width="1" opacity="1" d="M 13.5 4 L 14.5 6 L 13.5 4 Z " /><path fill="rgb(0,0,32)" stroke="rgb(0,0,32)" stroke-width="1" opacity="1" d="M 8.5 6 L 7.5 8 L 8.5 6 Z " /><path fill="rgb(0,0,32)" stroke="rgb(0,0,32)" stroke-width="1" opacity="1" d="M 5.5 9 L 4.5 11 L 5.5 9 Z " /><path fill="rgb(85,104,213)" stroke="rgb(85,104,213)" stroke-width="1" opacity="1" d="M 9.5 3 L 11.5 6 L 8.5 5 L 6.5 6 L 7.5 4 L 9.5 3 Z " /><path fill="rgb(88,104,205)" stroke="rgb(88,104,205)" stroke-width="1" opacity="1" d="M 11.5 4 L 10.5 6 L 11.5 4 Z " /><path fill="rgb(88,104,205)" stroke="rgb(88,104,205)" stroke-width="1" opacity="1" d="M 4 6 L 6 6.5 L 4 10 L 2 9.5 L 4 6 Z " /><path fill="rgb(0,1,22)" stroke="rgb(0,1,22)" stroke-width="1" opacity="1" d="M 16.5 6 L 17.5 8 L 16.5 6 Z " /><path fill="rgb(0,1,22)" stroke="rgb(0,1,22)" stroke-width="1" opacity="1" d="M 10.5 8 L 13.5 12 L 10.5 8 Z " /><path fill="rgb(0,1,40)" stroke="rgb(0,1,40)" stroke-width="1" opacity="1" d="M 9.5 6 L 14.5 12 L 9.5 6 Z " /><path fill="rgb(0,1,40)" stroke="rgb(0,1,40)" stroke-width="1" opacity="1" d="M 15.5 6 L 16.5 8 L 15.5 6 Z " /><path fill="rgb(94,108,196)" stroke="rgb(94,108,196)" stroke-width="1" opacity="1" d="M 5.5 7 L 4.5 9 L 5.5 7 Z " /><path fill="rgb(94,108,196)" stroke="rgb(94,108,196)" stroke-width="1" opacity="1" d="M 14.5 7 L 16 10 L 13 8.5 L 14.5 7 Z " /><path fill="rgb(89,103,188)" stroke="rgb(89,103,188)" stroke-width="1" opacity="1" d="M 8.5 2 L 11 3.5 L 9.5 3 L 8.5 2 Z " /><path fill="rgb(89,103,188)" stroke="rgb(89,103,188)" stroke-width="1" opacity="1" d="M 12.5 5 L 14 8 L 12 7.5 L 12.5 5 Z " /><path fill="rgb(89,103,188)" stroke="rgb(89,103,188)" stroke-width="1" opacity="1" d="M 1.5 9 L 2.5 11 L 1.5 9 Z " /><path fill="rgb(89,103,188)" stroke="rgb(89,103,188)" stroke-width="1" opacity="1" d="M 16.5 9 L 17 11 L 15 10.5 L 16.5 9 Z " /><path fill="rgb(43,51,106)" stroke="rgb(43,51,106)" stroke-width="1" opacity="1" d="M 17.5 10 L 16.5 12 L 17.5 10 Z " /><path fill="rgb(50,63,132)" stroke="rgb(50,63,132)" stroke-width="1" opacity="1" d="M 6.5 3 L 4.5 6 L 6.5 3 Z " /><path fill="rgb(50,63,132)" stroke="rgb(50,63,132)" stroke-width="1" opacity="1" d="M 11.5 3 L 12.5 5 L 11.5 3 Z " /><path fill="rgb(50,63,132)" stroke="rgb(50,63,132)" stroke-width="1" opacity="1" d="M 5.5 8 L 2.5 12 L 0 10.5 L 1.5 11 L 5.5 8 Z " /><path fill="rgb(50,63,132)" stroke="rgb(50,63,132)" stroke-width="1" opacity="1" d="M 12.5 8 L 13.5 10 L 12.5 8 Z " /><path fill="rgb(4,0,0)" stroke="rgb(4,0,0)" stroke-width="1" opacity="1" d="M 4.5 0 L 7 0.5 Q 4.9 3.8 4.5 0 Z " /><path fill="rgb(4,0,0)" stroke="rgb(4,0,0)" stroke-width="1" opacity="1" d="M 7 9 L 9 9.5 L 7 10.5 L 7 9 Z " /></svg>